ply
format ascii 1.0
comment Created by Blender 2.75 (sub 0) - www.blender.org, source file: 'F.blend'
element vertex 66
property float x
property float y
property float z
property float nx
property float ny
property float nz
property float s
property float t
element face 32
property list uchar uint vertex_indices
end_header
0.136900 1.930027 0.500000 -1.000000 0.000000 0.000000 0.159276 0.773020
0.136900 1.930027 -0.500000 -1.000000 0.000000 0.000000 0.159276 0.951514
0.136900 -0.069973 -0.500000 -1.000000 0.000000 0.000000 0.516262 0.951514
2.136900 1.930027 0.500000 0.000000 1.000000 0.000000 0.032102 0.010538
2.136900 1.930027 -0.500000 0.000000 1.000000 0.000000 0.032102 0.150134
0.136900 1.930027 -0.500000 0.000000 1.000000 0.000000 0.311293 0.150134
2.136900 1.930027 -0.500000 0.707107 -0.707107 0.000000 0.024770 0.145246
2.136900 1.930027 0.500000 0.707107 -0.707107 0.000000 0.024770 0.005650
0.136900 -0.069973 0.500000 0.707107 -0.707107 0.000000 0.303961 0.005650
0.136900 1.930027 -0.500000 0.000000 0.000000 -1.000000 0.984585 0.011427
2.136900 1.930027 -0.500000 0.000000 0.000000 -1.000000 0.687392 0.011427
0.136900 -0.069973 -0.500000 0.000000 0.000000 -1.000000 0.984585 0.308620
0.136900 1.930027 0.500000 0.000000 -0.000000 1.000000 0.961170 0.016630
0.136900 -0.069973 0.500000 0.000000 -0.000000 1.000000 0.961170 0.313823
2.136900 1.930027 0.500000 0.000000 -0.000000 1.000000 0.663978 0.016630
-1.627579 1.930027 0.500000 -1.000000 0.000000 0.000000 0.199838 0.188340
-1.627579 1.930027 -0.500000 -1.000000 0.000000 0.000000 0.021345 0.188340
-1.627579 -2.084715 -0.500000 -1.000000 0.000000 0.000000 0.021345 0.904944
-0.040214 1.930027 0.500000 0.000000 1.000000 0.000000 0.222670 0.854491
-0.040214 1.930027 -0.500000 0.000000 1.000000 0.000000 0.222670 0.970043
-1.627579 1.930027 -0.500000 0.000000 1.000000 0.000000 0.406092 0.970043
-0.040214 -2.084715 0.500000 1.000000 0.000000 -0.000000 0.807193 0.200840
-0.040214 -2.084715 -0.500000 1.000000 0.000000 -0.000000 0.985686 0.200840
-0.040214 1.930027 -0.500000 1.000000 0.000000 -0.000000 0.985686 0.917444
-1.627579 -2.084715 0.500000 0.000000 -1.000000 0.000000 0.629843 0.849378
-1.627579 -2.084715 -0.500000 0.000000 -1.000000 0.000000 0.629843 0.975592
-0.040214 -2.084715 -0.500000 0.000000 -1.000000 0.000000 0.429496 0.975592
-1.627579 1.930027 -0.500000 0.000000 0.000000 -1.000000 0.493548 0.198284
-0.040214 1.930027 -0.500000 0.000000 0.000000 -1.000000 0.210214 0.198284
-0.040214 -2.084715 -0.500000 0.000000 0.000000 -1.000000 0.210214 0.722473
-0.040214 1.930027 0.500000 0.000000 0.000000 1.000000 0.509219 0.197349
-1.627579 1.930027 0.500000 0.000000 0.000000 1.000000 0.792553 0.197349
-1.627579 -2.084715 0.500000 0.000000 0.000000 1.000000 0.792553 0.721539
0.140026 -0.173130 0.500000 -1.000000 0.000000 0.000000 0.177689 0.773020
0.140026 -0.173130 -0.500000 -1.000000 0.000000 0.000000 0.177689 0.951514
0.140026 -1.173130 -0.500000 -1.000000 0.000000 0.000000 0.356182 0.951514
1.140026 -0.173130 0.500000 0.000000 1.000000 0.000000 0.300286 0.773020
1.140026 -0.173130 -0.500000 0.000000 1.000000 0.000000 0.300286 0.951514
0.140026 -0.173130 -0.500000 0.000000 1.000000 0.000000 0.478779 0.951514
1.140026 -1.173130 0.500000 1.000000 0.000000 -0.000000 0.713168 0.773021
1.140026 -1.173130 -0.500000 1.000000 0.000000 -0.000000 0.713168 0.951514
1.140026 -0.173130 -0.500000 1.000000 0.000000 -0.000000 0.534675 0.951514
0.140026 -1.173130 0.500000 0.000000 -1.000000 0.000000 0.835765 0.773021
0.140026 -1.173130 -0.500000 0.000000 -1.000000 0.000000 0.835765 0.951514
1.140026 -1.173130 -0.500000 0.000000 -1.000000 0.000000 0.657272 0.951514
0.140026 -0.173130 -0.500000 0.000000 0.000000 -1.000000 0.575654 0.011183
1.140026 -0.173130 -0.500000 0.000000 0.000000 -1.000000 0.397161 0.011183
1.140026 -1.173130 -0.500000 0.000000 0.000000 -1.000000 0.397161 0.189676
1.140026 -0.173130 0.500000 0.000000 0.000000 1.000000 0.396530 0.011886
0.140026 -0.173130 0.500000 0.000000 0.000000 1.000000 0.575023 0.011886
0.140026 -1.173130 0.500000 0.000000 0.000000 1.000000 0.575023 0.190379
0.136900 -0.069973 0.500000 -1.000000 0.000000 0.000000 0.516262 0.773020
0.136900 1.930027 0.500000 0.000000 1.000000 -0.000000 0.311293 0.010538
0.136900 -0.069973 -0.500000 0.707107 -0.707107 0.000000 0.303961 0.145246
-1.627579 -2.084715 0.500000 -1.000000 0.000000 0.000000 0.199838 0.904944
-1.627579 1.930027 0.500000 0.000000 1.000000 -0.000000 0.406092 0.854491
-0.040214 1.930027 0.500000 1.000000 0.000000 -0.000000 0.807193 0.917444
-0.040214 -2.084715 0.500000 0.000000 -1.000000 0.000000 0.429496 0.849378
-1.627579 -2.084715 -0.500000 -0.000000 -0.000000 -1.000000 0.493548 0.722473
-0.040214 -2.084715 0.500000 -0.000000 0.000000 1.000000 0.509219 0.721538
0.140026 -1.173130 0.500000 -1.000000 0.000000 0.000000 0.356182 0.773020
0.140026 -0.173130 0.500000 0.000000 1.000000 -0.000000 0.478779 0.773020
1.140026 -0.173130 0.500000 1.000000 0.000000 -0.000000 0.534675 0.773020
1.140026 -1.173130 0.500000 0.000000 -1.000000 0.000000 0.657272 0.773021
0.140026 -1.173130 -0.500000 -0.000000 -0.000000 -1.000000 0.575654 0.189676
1.140026 -1.173130 0.500000 -0.000000 0.000000 1.000000 0.396530 0.190379
3 0 1 2
3 3 4 5
3 6 7 8
3 9 10 11
3 12 13 14
3 15 16 17
3 18 19 20
3 21 22 23
3 24 25 26
3 27 28 29
3 30 31 32
3 33 34 35
3 36 37 38
3 39 40 41
3 42 43 44
3 45 46 47
3 48 49 50
3 51 0 2
3 52 3 5
3 53 6 8
3 54 15 17
3 55 18 20
3 56 21 23
3 57 24 26
3 58 27 29
3 59 30 32
3 60 33 35
3 61 36 38
3 62 39 41
3 63 42 44
3 64 45 47
3 65 48 50
